<svg width="67" height="45" viewBox="0 0 67 45" fill="none" xmlns="http://www.w3.org/2000/svg">
<path d="M30.5123 0.0402577L10.1506 31.8992H2.71695C-0.644352 31.1846 -0.19187 26.639 0.454534 24.4555L14.3522 3.61322C16.4207 0.278455 19.7389 -0.15824 21.1395 0.0402577H30.5123Z" fill="#EDF2F4"/>
<path d="M24.6947 11.6524L20.1699 18.2028L34.3907 41.1293C36.7178 43.9877 39.2388 44.9007 40.2084 45H51.1972L32.4515 14.9276C30.383 11.3546 26.4184 11.2554 24.6947 11.6524Z" fill="#EDF2F4"/>
<path d="M27.9267 33.3879H2.71695L7.24178 41.1293C8.53459 43.2731 11.0125 44.603 12.0898 45H27.9267C31.8051 43.3326 31.9129 39.9383 31.4819 38.4496L27.9267 33.3879Z" fill="#EDF2F4"/>
<path d="M34.3907 16.1186L38.5924 22.9667H56.0453L59.6005 16.1186C59.0834 13.4984 55.9375 12.0494 54.4292 11.6524H39.562C36.9763 11.8906 35.0371 14.7291 34.3907 16.1186Z" fill="#EDF2F4"/>
<path d="M60.8933 17.3096L48.2884 37.8541L51.8436 43.809C54.6878 45.7146 57.769 44.206 58.9541 43.2135L66.0645 32.4946C67.3573 29.6363 67.0341 27.5322 66.7109 26.8375L60.8933 17.3096Z" fill="#EDF2F4"/>
</svg>
